<?xml version="1.0"?>
<svg xmlns="http://www.w3.org/2000/svg" height="512px" viewBox="0 0 464.349 464" width="512px"><g><path d="m64.277344 284.679688c4.914062 15.71875 11.984375 30.621093 20.992187 44.292968 51.65625-13.496094 105.21875-46.054687 151.441407-92.269531 39.855468-39.855469 69.503906-84.746094 85.734374-129.816406 2.570313-7.136719 4.699219-14.375 6.5625-21.609375-13.679687-9.015625-28.585937-16.085938-44.3125-21.007813-1.800781 8.800781-4.273437 17.625-7.425781 26.351563-13.640625 37.90625-40.09375 77.730468-74.503906 112.136718-42.839844 42.847657-92.800781 72.304688-138.488281 81.921876zm167.898437-92.503907h16v16h-16zm0 0" data-original="#000000" class="active-path" data-old_color="#000000" fill="#FFFFFF"/><path d="m95.351562 342.832031c13.269532 16.40625 29.589844 30.488281 48.398438 41.4375 40.496094-28.527343 85.488281-66.949219 129.519531-110.992187 44.042969-44.039063 82.464844-89.03125 111-129.527344-10.941406-18.785156-25.015625-35.085938-41.40625-48.351562-1.617187 5.664062-3.367187 11.320312-5.382812 16.910156-17 47.273437-47.945313 94.203125-89.464844 135.707031-46.402344 46.414063-100.175781 79.71875-152.664063 94.816406zm64.824219 17.34375h-16v-16h16zm168-200h16v16h-16zm0 0" data-original="#000000" class="active-path" data-old_color="#000000" fill="#FFFFFF"/><path d="m203.597656 58.527344c-74.191406 12.167968-132.894531 70.871094-145.0625 145.0625 27.832032-8.726563 59.765625-29.511719 87.664063-57.398438 27.886719-27.882812 48.664062-59.832031 57.398437-87.664062zm-59.421875 37.648437h16v16h-16zm0 0" data-original="#000000" class="active-path" data-old_color="#000000" fill="#FFFFFF"/><path d="m307.214844 307.214844c-14.449219 14.449218-58.792969 57.726562-110.113282 97.367187 11.503907 2.328125 23.226563 3.59375 35.074219 3.59375 97.046875 0 176-78.953125 176-176 0-11.847656-1.265625-23.578125-3.585937-35.074219-27.320313 35.585938-60.527344 73.273438-97.375 110.113282zm-58.214844 84.085937-1.65625-15.910156c5.0625-.527344 10.160156-1.34375 15.160156-2.40625l3.34375 15.644531c-5.546875 1.1875-11.207031 2.082032-16.847656 2.671875zm33.695312-7.269531-5.046874-15.175781c48.167968-16.023438 84.703124-56.777344 95.328124-106.351563l15.636719 3.351563c-11.796875 55.09375-52.382812 100.375-105.917969 118.175781zm0 0" data-original="#000000" class="active-path" data-old_color="#000000" fill="#FFFFFF"/><path d="m451.773438 12.582031c-5.664063-5.664062-15.925782-12.40625-32.71875-12.40625-26.734376 0-66.839844 18.460938-116.480469 53.472657 5.785156 2.277343 11.480469 4.757812 16.992187 7.582031 43.839844-29.9375 98.855469-59.390625 120.878906-37.335938 15.839844 15.832031 7.378907 50.257813-25.160156 102.3125-29.75 47.609375-76.167968 103.855469-130.710937 158.390625-54.535157 54.535156-110.792969 100.960938-158.390625 130.710938-35.066406 21.914062-62.128906 32.90625-80.898438 32.90625-9.09375 0-16.230468-2.578125-21.40625-7.753906-22.0625-22.0625 7.390625-77.039063 37.328125-120.871094-2.839843-5.550782-5.328125-11.289063-7.617187-17.101563-6.574219 9.335938-12.671875 18.453125-18.136719 27.191407-23.917969 38.304687-52.34375 92.628906-22.878906 122.085937 5.65625 5.65625 15.921875 12.402344 32.71875 12.410156 56.890625 0 166.867187-84.511719 250.609375-168.273437 55.375-55.367188 102.601562-112.632813 132.976562-161.222656 23.9375-38.3125 52.359375-92.640626 22.894532-122.097657zm0 0" data-original="#000000" class="active-path" data-old_color="#000000" fill="#FFFFFF"/><path d="m191.453125 191.453125c32.777344-32.773437 57.898437-70.496094 70.761719-106.238281 3-8.335938 5.136718-16.746094 6.792968-25.121094-11.976562-2.550781-24.304687-3.917969-36.832031-3.917969-3.882812 0-7.730469.167969-11.546875.421875-8.199218 31.890625-31.292968 69.089844-63.117187 100.914063s-69.023438 54.917969-100.914063 63.117187c-.253906 3.816406-.421875 7.664063-.421875 11.546875 0 12.597657 1.382813 24.984375 3.96875 37 42.894531-8.761719 90.328125-36.738281 131.308594-77.722656zm0 0" data-original="#000000" class="active-path" data-old_color="#000000" fill="#FFFFFF"/></g> </svg>
