<?xml version="1.0"?>
<svg xmlns="http://www.w3.org/2000/svg" id="Layer_1" enable-background="new 0 0 496.01 496.01" height="512px" viewBox="0 0 496.01 496.01" width="512px"><g><path d="m298.776 243.673c0 53.022-64.583 80.464-102.563 42.483-37.61-37.611-10.895-102.563 42.483-102.563 33.203 0 60.08 26.872 60.08 60.08zm137.509 197.593c-30.932 30.979-105.794-19.348-141.23-45.16-27.2 10.06-56.5 12.65-85.3 7.46-98.901-17.826-158.648-121.19-123.49-216.25-26.008-35.687-76.112-110.288-45.16-141.24 30.939-30.963 105.627 19.223 141.23 45.17 95.056-35.192 198.458 24.63 216.25 123.48 5.19 28.81 2.6 58.1-7.46 85.31 25.793 35.393 76.173 110.217 45.16 141.23zm-132.48-262.702c-35.985-35.986-94.23-35.991-130.22 0-35.902 35.902-35.902 94.319 0 130.22 35.986 35.987 94.23 35.991 130.22 0 35.986-35.985 35.992-94.231 0-130.22zm-241.049 163.037c-7.416-13.647-13.021-28.25-16.658-43.401-2.063-8.593-10.703-13.887-19.293-11.823-8.592 2.063-13.886 10.701-11.823 19.293 4.291 17.873 10.904 35.103 19.657 51.209 2.9 5.338 8.397 8.364 14.073 8.364 12.018 0 19.861-12.936 14.044-23.642zm-21.455-92.905c.142-3.367.381-6.771.712-10.117.869-8.794-5.555-16.627-14.349-17.496-8.801-.865-16.627 5.556-17.496 14.349-.39 3.943-.672 7.953-.839 11.919-.382 9.075 6.865 16.673 15.998 16.673 8.526 0 15.612-6.728 15.974-15.328zm187.888 246.913c8.82-.544 15.528-8.135 14.984-16.955-.545-8.82-8.151-15.521-16.955-14.984-27.259 1.684-54.958-2.875-80.104-13.179-8.176-3.351-17.521.562-20.872 8.738-3.351 8.177.562 17.521 8.738 20.872 29.563 12.113 62.132 17.487 94.209 15.508zm72.254-17.405c8.097-3.539 11.792-12.971 8.254-21.068-3.538-8.098-12.975-11.79-21.068-8.254-2.487 1.087-5.043 2.135-7.595 3.114-8.251 3.165-12.373 12.419-9.208 20.669 2.441 6.366 8.508 10.274 14.941 10.274 3.151 0 5.203-.596 14.676-4.735zm32.438-441.68c3.087-8.28-1.123-17.494-9.402-20.581-49.753-18.548-102.142-20.634-149.421-7.707-8.524 2.331-13.544 11.129-11.214 19.653s11.128 13.546 19.653 11.214c41.045-11.221 86.562-9.298 129.801 6.823 8.291 3.091 17.499-1.132 20.583-9.402zm121.814 55.492c-17.09 0-31 13.91-31 31s13.91 31 31 31 31-13.91 31-31-13.91-31-31-31z" data-original="#000000" class="active-path" data-old_color="#000000" fill="#FFFFFF"/></g> </svg>
