<?xml version="1.0"?>
<svg xmlns="http://www.w3.org/2000/svg" xmlns:xlink="http://www.w3.org/1999/xlink" version="1.1" id="Capa_1" x="0px" y="0px" viewBox="0 0 480 480" style="enable-background:new 0 0 480 480;" xml:space="preserve" width="512px" height="512px"><g><g>
	<g>
		<path d="M236.008,45.064V88c-0.001,4.034-3.005,7.436-7.008,7.936l-72.992,9.128v4.808c-0.003,4.418,3.576,8.003,7.994,8.006    c0.334,0,0.667-0.02,0.998-0.062l103.008-12.88V41.064L236.008,45.064z" data-original="#000000" class="active-path" data-old_color="#000000" fill="#FFFFFF"/>
	</g>
</g><g>
	<g>
		<circle cx="260.008" cy="440" r="24" data-original="#000000" class="active-path" data-old_color="#000000" fill="#FFFFFF"/>
	</g>
</g><g>
	<g>
		<path d="M323.735,177.271c-27.847-11.387-57.642-17.253-87.727-17.271c-39.172-0.055-77.714,9.856-112,28.8V92.936l96-12V26.128    c0.003-4.418-3.576-8.003-7.994-8.006c-0.334,0-0.667,0.02-0.998,0.062l-103.008,12.88V198.52    C15.681,259.666-20.621,377.498,21.288,480h238.72c-22.091,0-40-17.909-40-40c0-22.091,17.909-40,40-40c22.091,0,40,17.909,40,40    c-0.026,22.08-17.92,39.974-40,40h190.728C499.262,361.333,442.401,225.797,323.735,177.271z M44.008,360c0-26.51,21.49-48,48-48    c26.51,0,48,21.49,48,48c0,26.51-21.49,48-48,48C65.509,407.974,44.034,386.499,44.008,360z M92.008,448v-16    c19.357,0.064,37.912-7.731,51.416-21.6l11.424,11.2C138.339,438.545,115.665,448.071,92.008,448z M172.008,264h-16v-16h16V264z     M316.008,336c-39.744-0.049-71.951-32.256-72-72h16c0.035,30.913,25.087,55.965,56,56V336z M316.008,304    c-22.091,0-40-17.909-40-40c0-22.091,17.909-40,40-40c22.091,0,40,17.909,40,40C355.981,286.08,338.088,303.974,316.008,304z     M420.008,376c-22.091-0.014-40.012,17.883-40.026,39.974c-0.009,14.311,7.627,27.536,20.026,34.682l-8,13.848    c-26.788-15.458-35.973-49.705-20.515-76.493c10.004-17.336,28.5-28.015,48.515-28.011V376z" data-original="#000000" class="active-path" data-old_color="#000000" fill="#FFFFFF"/>
	</g>
</g><g>
	<g>
		<circle cx="92.008" cy="360" r="32" data-original="#000000" class="active-path" data-old_color="#000000" fill="#FFFFFF"/>
	</g>
</g><g>
	<g>
		<circle cx="316.008" cy="264" r="24" data-original="#000000" class="active-path" data-old_color="#000000" fill="#FFFFFF"/>
	</g>
</g><g>
	<g>
		<rect x="404.008" y="112" width="16" height="16" data-original="#000000" class="active-path" data-old_color="#000000" fill="#FFFFFF"/>
	</g>
</g><g>
	<g>
		<rect x="4.008" y="8" width="16" height="16" data-original="#000000" class="active-path" data-old_color="#000000" fill="#FFFFFF"/>
	</g>
</g><g>
	<g>
		<rect x="300.008" width="16" height="16" data-original="#000000" class="active-path" data-old_color="#000000" fill="#FFFFFF"/>
	</g>
</g><g>
	<g>
		<rect x="44.008" y="176" width="16" height="16" data-original="#000000" class="active-path" data-old_color="#000000" fill="#FFFFFF"/>
	</g>
</g><g>
	<g>
		<circle cx="428.008" cy="48" r="48" data-original="#000000" class="active-path" data-old_color="#000000" fill="#FFFFFF"/>
	</g>
</g></g> </svg>
