<?xml version="1.0"?>
<svg xmlns="http://www.w3.org/2000/svg" id="Solid" height="512px" viewBox="0 0 512 512" width="512px"><g><path d="m428.246 415.205a11.668 11.668 0 0 0 -2.279.241 25.166 25.166 0 0 0 -17.724 17.725c-.512 2.558-.2 4.706.841 5.744 2.308 2.307 10.065 1.25 16.971-5.656 6.906-6.9 7.963-14.663 5.656-16.971a4.883 4.883 0 0 0 -3.465-1.083z" data-original="#000000" class="active-path" data-old_color="#000000" fill="#FFFFFF"/><path d="m392 288a103.367 103.367 0 0 1 49.077 12.33 200.151 200.151 0 0 0 6.923-52.33c0-110.28-89.72-200-200-200s-200 89.72-200 200 89.72 200 200 200a200.151 200.151 0 0 0 52.33-6.923 103.967 103.967 0 0 1 91.67-153.077zm-272-176h39.931c27.919 0 56.505-7.373 82.669-21.321 13.1-6.987 28.8-10.679 45.4-10.679s32.3 3.692 45.4 10.679a183.748 183.748 0 0 0 44.427 16.844l-3.654 15.577a199.809 199.809 0 0 1 -48.3-18.3c-10.795-5.758-23.891-8.8-37.873-8.8s-27.078 3.042-37.873 8.8c-28.472 15.179-59.662 23.2-90.2 23.2h-39.927zm216 40c0 17.944-21.084 32-48 32s-48-14.056-48-32 21.084-32 48-32 48 14.056 48 32zm-264 24h94.7c27.949 0 56.242 7.717 81.82 22.315 11.099 6.336 24.751 9.685 39.48 9.685s28.381-3.349 39.48-9.685c25.578-14.598 53.871-22.315 81.82-22.315h14.7v16h-14.7c-25.172 0-50.722 6.989-73.888 20.212-13.512 7.712-29.906 11.788-47.412 11.788s-33.9-4.076-47.412-11.788c-23.166-13.223-48.716-20.212-73.888-20.212h-94.7zm-9.36 77.937a153.144 153.144 0 0 0 49.948-18.149c13.512-7.712 29.906-11.788 47.412-11.788s33.9 4.076 47.412 11.788c23.166 13.223 48.716 20.212 73.888 20.212h150.7v16h-150.7c-27.949 0-56.242-7.717-81.82-22.315-11.099-6.336-24.751-9.685-39.48-9.685s-28.381 3.349-39.48 9.685a169.13 169.13 0 0 1 -55.16 20.015zm145.36 42.063c0 17.944-21.084 32-48 32s-48-14.056-48-32 21.084-32 48-32 48 14.056 48 32zm62.027 118.2c-16.845-4.288-33.507-6.2-54.027-6.2a346.477 346.477 0 0 0 -62.551 5.869l-2.9-15.734a362.3 362.3 0 0 1 65.451-6.135c21.906 0 39.785 2.064 57.973 6.693zm-60.65-59.147c-13.877 8.469-30.956 12.947-49.377 12.947s-35.5-4.478-49.377-12.948a128.119 128.119 0 0 0 -32.748-14.1l4.25-15.426a144.171 144.171 0 0 1 36.833 15.865c11.37 6.941 25.562 10.609 41.042 10.609s29.672-3.668 41.042-10.606c22.934-14 49.979-21.394 78.21-21.394h8.748v16h-8.748c-25.29 0-49.452 6.588-69.875 19.052z" data-original="#000000" class="active-path" data-old_color="#000000" fill="#FFFFFF"/><ellipse cx="160" cy="296" rx="32" ry="16" data-original="#000000" class="active-path" data-old_color="#000000" fill="#FFFFFF"/><path d="m476.673 368h-44.673v-16h38.372a88.317 88.317 0 0 0 -10.539-16h-59.833v-16h42.538a87.954 87.954 0 0 0 -135.211 48h76.673v16h-79.633c-.238 2.636-.367 5.3-.367 8s.129 5.364.367 8h31.633v16h-28.673a87.881 87.881 0 0 0 16.84 32h35.833v16h-18.538a88 88 0 0 0 135.211-96zm-39.3 76.572c-7.5 7.5-16.641 11.434-24.829 11.434a20.428 20.428 0 0 1 -14.769-5.777c-4.9-4.9-6.8-12.263-5.217-20.2a41.018 41.018 0 0 1 30.275-30.276c7.934-1.585 15.294.315 20.2 5.217 9.509 9.521 7.024 26.915-5.664 39.602z" data-original="#000000" class="active-path" data-old_color="#000000" fill="#FFFFFF"/><ellipse cx="288" cy="152" rx="32" ry="16" data-original="#000000" class="active-path" data-old_color="#000000" fill="#FFFFFF"/><path d="m62.185 137.705a218.647 218.647 0 0 1 75.521-75.519 56.006 56.006 0 1 0 -75.521 75.519zm17.815-81.705h16v16h-16z" data-original="#000000" class="active-path" data-old_color="#000000" fill="#FFFFFF"/><path d="m184 480h16v16h-16z" data-original="#000000" class="active-path" data-old_color="#000000" fill="#FFFFFF"/><path d="m40 464h16v16h-16z" data-original="#000000" class="active-path" data-old_color="#000000" fill="#FFFFFF"/><path d="m24 352h16v16h-16z" data-original="#000000" class="active-path" data-old_color="#000000" fill="#FFFFFF"/><path d="m368 24h16v16h-16z" data-original="#000000" class="active-path" data-old_color="#000000" fill="#FFFFFF"/><path d="m480 184h16v16h-16z" data-original="#000000" class="active-path" data-old_color="#000000" fill="#FFFFFF"/><path d="m464 64h16v16h-16z" data-original="#000000" class="active-path" data-old_color="#000000" fill="#FFFFFF"/><path d="m480 480h16v16h-16z" data-original="#000000" class="active-path" data-old_color="#000000" fill="#FFFFFF"/></g> </svg>
